<svg width="30" height="30" viewBox="0 0 30 30" fill="none" xmlns="http://www.w3.org/2000/svg">
<path d="M14.8694 29.2164C22.9373 29.2164 29.4776 22.6761 29.4776 14.6082C29.4776 6.54032 22.9373 0 14.8694 0C6.80155 0 0.26123 6.54032 0.26123 14.6082C0.26123 22.6761 6.80155 29.2164 14.8694 29.2164Z" fill="#242424"/>
<path d="M16.0014 12.617C16.2416 12.3465 16.4385 12.0738 16.6852 11.8423C17.4427 11.1281 18.3387 10.7688 19.3861 10.7775C19.9618 10.7818 20.5288 10.8229 21.0828 10.9831C22.3511 11.3488 23.0869 12.2232 23.4396 13.4611C23.7037 14.3895 23.7513 15.3439 23.7534 16.3005C23.7578 18.3175 23.7469 20.3367 23.7513 22.3537C23.7513 22.542 23.6993 22.5917 23.5132 22.5917C22.4744 22.5831 21.4334 22.5831 20.3946 22.5917C20.2107 22.5939 20.1717 22.5376 20.1717 22.3645C20.1782 20.4449 20.1782 18.5253 20.1717 16.6035C20.1696 16.123 20.1393 15.6404 20.0051 15.1729C19.7562 14.3116 19.1394 13.8723 18.2369 13.9199C17.0034 13.9848 16.3628 14.5951 16.2048 15.8482C16.168 16.1468 16.1485 16.4476 16.1507 16.7485C16.1528 18.6162 16.1485 20.4838 16.155 22.3515C16.155 22.5376 16.1096 22.5917 15.9191 22.5917C14.8717 22.5831 13.8242 22.5831 12.7767 22.5917C12.6079 22.5939 12.5603 22.5485 12.5603 22.3775C12.5646 18.6811 12.5646 14.9825 12.5603 11.2861C12.5603 11.1021 12.6209 11.061 12.794 11.061C13.7874 11.0675 14.7829 11.0697 15.7763 11.061C15.9602 11.0588 16.0057 11.1194 16.0035 11.2926C15.9949 11.7319 16.0014 12.1734 16.0014 12.617Z" fill="white"/>
<path d="M10.3052 16.8417C10.3052 18.6705 10.3031 20.4992 10.3096 22.3279C10.3096 22.5314 10.2598 22.592 10.0499 22.5898C9.01105 22.579 7.97223 22.5811 6.93126 22.5876C6.76462 22.5898 6.71484 22.5465 6.71484 22.3756C6.71917 18.6726 6.71917 14.9697 6.71484 11.2647C6.71484 11.111 6.75164 11.0569 6.91396 11.0569C7.96791 11.0634 9.02187 11.0656 10.0758 11.0547C10.2793 11.0526 10.3052 11.1305 10.3052 11.3058C10.3031 13.154 10.3052 14.9979 10.3052 16.8417Z" fill="white"/>
<path d="M10.5909 7.39076C10.593 8.53994 9.66028 9.47487 8.51326 9.47487C7.38139 9.47487 6.44215 8.53995 6.43782 7.40808C6.43349 6.26539 7.37274 5.32397 8.51759 5.32397C9.65379 5.32614 10.5909 6.2589 10.5909 7.39076Z" fill="white"/>
</svg>
