<svg width="21" height="18" viewBox="0 0 21 18" fill="none" xmlns="http://www.w3.org/2000/svg">
<path d="M19.2631 0H12.9326C12.3578 0 11.8913 0.466461 11.8913 1.04121V7.37175C11.8913 7.94651 12.3578 8.41295 12.9326 8.41295H15.9625C15.9229 10.0706 15.5377 11.3971 14.8088 12.3945C14.2341 13.1817 13.3636 13.8335 12.1995 14.3478C11.6644 14.5831 11.4332 15.2162 11.6831 15.7452L12.4328 17.3278C12.6743 17.8359 13.272 18.0587 13.7884 17.8359C15.167 17.2403 16.3311 16.4865 17.2806 15.5702C18.4385 14.452 19.2319 13.19 19.6608 11.7823C20.0898 10.3746 20.3043 8.4546 20.3043 6.01818V1.04121C20.3043 0.466482 19.8378 0 19.2631 0Z" fill="black"/>
<path d="M2.20813 17.8317C3.57003 17.2382 4.72785 16.4844 5.68368 15.5702C6.85191 14.452 7.64948 13.1942 8.07846 11.7969C8.50743 10.3996 8.7219 8.47334 8.7219 6.01818V1.04121C8.7219 0.466461 8.25546 0 7.68069 0H1.35016C0.77541 0 0.308949 0.466461 0.308949 1.04121V7.37175C0.308949 7.94651 0.77541 8.41295 1.35016 8.41295H4.38007C4.3405 10.0706 3.95526 11.3971 3.22641 12.3945C2.65166 13.1817 1.78122 13.8335 0.617146 14.3478C0.0819659 14.5831 -0.149182 15.2162 0.100708 15.7452L0.848294 17.3236C1.08988 17.8317 1.69169 18.0566 2.20813 17.8317Z" fill="black"/>
</svg>
