<svg width="30" height="30" viewBox="0 0 30 30" fill="none" xmlns="http://www.w3.org/2000/svg">
<path d="M29.7389 14.6082C29.7389 6.54015 23.1987 0 15.1307 0C7.06261 0 0.522461 6.54015 0.522461 14.6082C0.522461 21.8993 5.86365 27.9439 12.8475 29.039V18.8305H9.13806V14.6082H12.8475V11.3901C12.8475 7.72828 15.029 5.70694 18.3661 5.70694C19.9654 5.70694 21.6362 5.99261 21.6362 5.99261V9.58731H19.7945C17.9809 9.58731 17.4139 10.7127 17.4139 11.8684V14.6082H21.4652L20.8181 18.8305H17.4139V29.039C24.3977 27.9417 29.7389 21.8993 29.7389 14.6082Z" fill="#242424"/>
<path d="M20.816 18.8306L21.4631 14.6083H17.4117V11.8684C17.4117 10.7128 17.9788 9.5874 19.7923 9.5874H21.6341V5.9927C21.6341 5.9927 19.9633 5.70703 18.364 5.70703C15.0268 5.70703 12.8453 7.72837 12.8453 11.3902V14.6083H9.13593V18.8306H12.8453V29.039C13.5898 29.1559 14.3516 29.2165 15.1285 29.2165C15.9055 29.2165 16.6673 29.1559 17.4117 29.039V18.8306H20.816Z" fill="white"/>
</svg>
