<svg width="32" height="35" viewBox="0 0 32 35" fill="none" xmlns="http://www.w3.org/2000/svg">
<path d="M31.7588 9.96622C31.761 9.54317 31.6503 9.12717 31.4381 8.76106H31.4228C31.2064 8.38238 30.8893 8.07088 30.5067 7.86101L17.0703 0.309685C16.7063 0.106611 16.2963 0 15.8794 0C15.4624 0 15.0525 0.106611 14.6884 0.309685L1.25203 7.86101C0.872636 8.07516 0.556601 8.38566 0.33591 8.76106C0.33591 8.76511 0.334301 8.76899 0.331438 8.77185C0.328575 8.77471 0.324691 8.77632 0.320641 8.77632V8.80683C0.112192 9.15781 0.00148627 9.55811 0 9.96622V25.0078C0.000771995 25.4427 0.117089 25.8696 0.337063 26.2448C0.557037 26.62 0.872782 26.9302 1.25203 27.1436L14.6884 34.6949C15.0267 34.8793 15.4028 34.9836 15.7878 35H15.9863C16.3664 34.9835 16.7375 34.879 17.0703 34.6949L30.5067 27.1436C30.886 26.9302 31.2017 26.62 31.4217 26.2448C31.6417 25.8696 31.758 25.4427 31.7588 25.0078V9.96622ZM21.9868 21.4381V29.1267L17.1161 31.8727L17.2383 18.204L29.3158 11.3392V16.6022L22.6128 20.3855C22.4239 20.4891 22.2662 20.6414 22.1561 20.8265C22.046 21.0116 21.9875 21.2228 21.9868 21.4381ZM9.14591 20.3855L2.44298 16.6022V11.3239L14.7953 18.204L14.6732 31.8879L9.77192 29.1267V21.4381C9.77121 21.2228 9.71277 21.0116 9.60268 20.8265C9.49259 20.6414 9.33486 20.4891 9.14591 20.3855ZM8.39775 6.61008L15.2839 10.4696C15.4633 10.5788 15.6693 10.6365 15.8794 10.6365C16.0894 10.6365 16.2954 10.5788 16.4749 10.4696L23.361 6.61008L28.0485 9.24923L16.0168 16.0836L3.72555 9.24923L8.39775 6.61008ZM15.8794 2.4149L20.857 5.2066L15.8794 8.01356L10.9018 5.2066L15.8794 2.4149ZM2.44298 19.4092L7.32894 22.1551V27.7538L2.44298 25.0078V19.4092ZM24.4298 27.7538V22.1551L29.3158 19.4092V25.0078L24.4298 27.7538Z" fill="black"/>
</svg>
