<svg width="35" height="35" viewBox="0 0 35 35" fill="none" xmlns="http://www.w3.org/2000/svg">
<path fill-rule="evenodd" clip-rule="evenodd" d="M10.803 1.33211C12.9262 0.452651 15.2019 0 17.5 0C19.7981 0 22.0738 0.452651 24.197 1.33211C26.3202 2.21157 28.2493 3.50061 29.8744 5.12563C31.4994 6.75066 32.7884 8.67984 33.6679 10.803C34.5473 12.9262 35 15.2019 35 17.5C35 19.7981 34.5473 22.0738 33.6679 24.197C32.7884 26.3202 31.4994 28.2493 29.8744 29.8744C28.2493 31.4994 26.3202 32.7884 24.197 33.6679C22.0738 34.5473 19.7981 35 17.5 35C15.2019 35 12.9262 34.5473 10.803 33.6679C8.67984 32.7884 6.75066 31.4994 5.12563 29.8744C3.50061 28.2493 2.21157 26.3202 1.33211 24.197C0.452651 22.0738 0 19.7981 0 17.5C0 15.2019 0.452651 12.9262 1.33211 10.803C2.21157 8.67984 3.50061 6.75066 5.12563 5.12563C6.75066 3.50061 8.67984 2.21157 10.803 1.33211ZM17.5 3.5C15.6615 3.5 13.841 3.86212 12.1424 4.56569C10.4439 5.26925 8.90052 6.30049 7.6005 7.60051C6.30048 8.90052 5.26925 10.4439 4.56569 12.1424C3.86212 13.841 3.5 15.6615 3.5 17.5C3.5 19.0837 3.7687 20.654 4.29287 22.1445C5.92371 21.3542 7.52253 20.6568 9.04354 19.9933C9.3964 19.8393 9.74508 19.6872 10.089 19.5362C12.426 18.5101 14.5513 17.5312 16.4836 16.3257C19.9983 14.1329 22.9421 11.1515 24.9533 5.6489C24.288 5.23049 23.5871 4.86787 22.8576 4.56569C21.159 3.86212 19.3385 3.5 17.5 3.5ZM27.7915 8.00865C25.5058 13.5732 22.2173 16.8738 18.3362 19.2952C16.17 20.6466 13.8398 21.7118 11.4962 22.7409C11.1389 22.8978 10.7814 23.0538 10.4235 23.21C9.97417 23.406 9.52428 23.6023 9.0735 23.801C10.3054 23.4757 11.5588 23.2226 12.7801 22.9935C13.3051 22.895 13.8242 22.8008 14.3368 22.7079C16.7037 22.2786 18.9301 21.8748 20.9503 21.1861C23.3587 20.3651 25.2331 19.2105 26.4552 17.3423C27.6607 15.4994 28.397 12.7079 28.0279 8.27163C27.9502 8.18302 27.8714 8.09536 27.7915 8.00865ZM31.2169 14.6989C30.8472 16.4571 30.23 17.9654 29.3842 19.2583C27.576 22.0224 24.8953 23.5391 22.0796 24.4989C19.7869 25.2805 17.2444 25.74 14.8714 26.1689C14.3809 26.2575 13.8977 26.3449 13.4254 26.4335C11.4229 26.8091 9.59712 27.2094 8.00896 27.7917C9.21941 28.908 10.6184 29.8031 12.1424 30.4343C13.841 31.1379 15.6615 31.5 17.5 31.5C19.3385 31.5 21.159 31.1379 22.8576 30.4343C24.5561 29.7307 26.0995 28.6995 27.3995 27.3995C28.6995 26.0995 29.7308 24.5561 30.4343 22.8576C31.1379 21.159 31.5 19.3385 31.5 17.5C31.5 16.5569 31.4047 15.6185 31.2169 14.6989Z" fill="black"/>
</svg>
